<svg width="640" height="360" viewBox="0 0 640 360" fill="none" xmlns="http://www.w3.org/2000/svg">
  <defs>
    <linearGradient id="bluepeak-bg" x1="0" y1="0" x2="1" y2="1">
      <stop offset="0%" stop-color="#003366" />
      <stop offset="100%" stop-color="#005C99" />
    </linearGradient>
  </defs>
  <rect width="640" height="360" rx="24" fill="url(#bluepeak-bg)"/>
  <g opacity="0.2">
    <circle cx="120" cy="120" r="60" fill="white"/>
    <circle cx="520" cy="90" r="80" fill="white"/>
    <circle cx="430" cy="280" r="70" fill="white"/>
  </g>
  <g transform="translate(120,150)">
    <rect x="-50" y="70" width="440" height="110" rx="18" fill="rgba(255,255,255,0.12)"/>
    <g transform="translate(0,0)">
      <circle cx="40" cy="40" r="36" fill="#FDBF50"/>
      <rect x="10" y="70" width="60" height="70" rx="12" fill="#245E92"/>
    </g>
    <g transform="translate(120,0)">
      <circle cx="40" cy="40" r="36" fill="#27AE60"/>
      <rect x="10" y="70" width="60" height="70" rx="12" fill="#0B3F66"/>
    </g>
    <g transform="translate(240,0)">
      <circle cx="40" cy="40" r="36" fill="#F37777"/>
      <rect x="10" y="70" width="60" height="70" rx="12" fill="#1F4E7A"/>
    </g>
    <g transform="translate(360,0)">
      <circle cx="40" cy="40" r="36" fill="#5A9BFF"/>
      <rect x="10" y="70" width="60" height="70" rx="12" fill="#0E2F4A"/>
    </g>
  </g>
  <text x="40" y="60" font-family="'Inter', 'Helvetica', sans-serif" font-size="28" font-weight="700" fill="white">BluePeak Inc. チーム</text>
  <text x="40" y="95" font-family="'Inter', 'Helvetica', sans-serif" font-size="18" fill="rgba(255,255,255,0.8)">学生との共創を推進するプロダクト開発部</text>
</svg>
