<svg width="640" height="360" viewBox="0 0 640 360" fill="none" xmlns="http://www.w3.org/2000/svg">
  <defs>
    <linearGradient id="cs-bg" x1="0" y1="0" x2="1" y2="1">
      <stop offset="0%" stop-color="#FF6B35" />
      <stop offset="100%" stop-color="#FF8C61" />
    </linearGradient>
  </defs>
  <rect width="640" height="360" rx="24" fill="url(#cs-bg)"/>
  <g opacity="0.25">
    <rect x="60" y="60" width="120" height="160" rx="20" fill="white"/>
    <rect x="460" y="40" width="160" height="200" rx="20" fill="white"/>
    <circle cx="250" cy="300" r="80" fill="white"/>
  </g>
  <g transform="translate(90,150)">
    <rect x="-40" y="60" width="480" height="110" rx="22" fill="rgba(255,255,255,0.16)"/>
    <g transform="translate(10,-10)">
      <circle cx="40" cy="40" r="34" fill="#FFD166"/>
      <rect x="8" y="68" width="64" height="72" rx="14" fill="#2A2D43"/>
    </g>
    <g transform="translate(130,-20)">
      <circle cx="40" cy="40" r="40" fill="#4ECDC4"/>
      <rect x="6" y="72" width="68" height="78" rx="16" fill="#1C1E32"/>
    </g>
    <g transform="translate(250,-10)">
      <circle cx="40" cy="40" r="34" fill="#E63946"/>
      <rect x="8" y="68" width="64" height="72" rx="14" fill="#2A2D43"/>
    </g>
    <g transform="translate(370,0)">
      <circle cx="40" cy="40" r="32" fill="#06D6A0"/>
      <rect x="10" y="70" width="60" height="70" rx="14" fill="#1C1E32"/>
    </g>
  </g>
  <text x="40" y="60" font-family="'Inter', 'Helvetica', sans-serif" font-size="28" font-weight="700" fill="white">Creative Solutions スタジオ</text>
  <text x="40" y="95" font-family="'Inter', 'Helvetica', sans-serif" font-size="18" fill="rgba(255,255,255,0.85)">デザインとマーケティングを支えるクリエイティブチーム</text>
</svg>
