<svg width="640" height="360" viewBox="0 0 640 360" fill="none" xmlns="http://www.w3.org/2000/svg">
  <defs>
    <linearGradient id="eco-bg" x1="0" y1="0" x2="1" y2="1">
      <stop offset="0%" stop-color="#27AE60" />
      <stop offset="100%" stop-color="#52C77E" />
    </linearGradient>
  </defs>
  <rect width="640" height="360" rx="24" fill="url(#eco-bg)"/>
  <g opacity="0.2">
    <circle cx="140" cy="110" r="80" fill="white"/>
    <circle cx="520" cy="130" r="70" fill="white"/>
    <rect x="180" y="230" width="320" height="80" rx="30" fill="white"/>
  </g>
  <g transform="translate(110,160)">
    <rect x="-30" y="52" width="440" height="112" rx="28" fill="rgba(255,255,255,0.2)"/>
    <g transform="translate(0,-18)">
      <circle cx="40" cy="40" r="34" fill="#A3D977"/>
      <rect x="8" y="68" width="64" height="78" rx="18" fill="#14452F"/>
    </g>
    <g transform="translate(120,-26)">
      <circle cx="40" cy="40" r="38" fill="#F1F7E7"/>
      <rect x="6" y="70" width="68" height="82" rx="18" fill="#1E5839"/>
    </g>
    <g transform="translate(240,-12)">
      <circle cx="40" cy="40" r="36" fill="#F7DC6F"/>
      <rect x="8" y="70" width="64" height="78" rx="18" fill="#14452F"/>
    </g>
    <g transform="translate(360,-8)">
      <circle cx="40" cy="40" r="34" fill="#2C9C69"/>
      <rect x="10" y="72" width="60" height="76" rx="18" fill="#1E5839"/>
    </g>
  </g>
  <text x="40" y="58" font-family="'Inter', 'Helvetica', sans-serif" font-size="28" font-weight="700" fill="white">EcoLife Partners チーム</text>
  <text x="40" y="92" font-family="'Inter', 'Helvetica', sans-serif" font-size="18" fill="rgba(255,255,255,0.85)">サステナブルな協賛を共創するCSRプロフェッショナル</text>
</svg>
