<svg width="640" height="360" viewBox="0 0 640 360" fill="none" xmlns="http://www.w3.org/2000/svg">
  <defs>
    <linearGradient id="fb-bg" x1="0" y1="0" x2="1" y2="1">
      <stop offset="0%" stop-color="#E74C3C" />
      <stop offset="100%" stop-color="#C0392B" />
    </linearGradient>
  </defs>
  <rect width="640" height="360" rx="24" fill="url(#fb-bg)"/>
  <g opacity="0.2">
    <rect x="80" y="60" width="140" height="150" rx="24" fill="white"/>
    <rect x="460" y="70" width="120" height="140" rx="24" fill="white"/>
    <circle cx="320" cy="300" r="90" fill="white"/>
  </g>
  <g transform="translate(110,160)">
    <rect x="-30" y="50" width="440" height="115" rx="24" fill="rgba(255,255,255,0.18)"/>
    <g transform="translate(0,-16)">
      <circle cx="40" cy="40" r="34" fill="#F5B041"/>
      <rect x="8" y="68" width="64" height="80" rx="16" fill="#2A2C34"/>
    </g>
    <g transform="translate(120,-22)">
      <circle cx="40" cy="40" r="38" fill="#85C1E9"/>
      <rect x="6" y="70" width="68" height="84" rx="18" fill="#1A1C24"/>
    </g>
    <g transform="translate(240,-18)">
      <circle cx="40" cy="40" r="36" fill="#FAD7A0"/>
      <rect x="8" y="70" width="64" height="82" rx="18" fill="#2A2C34"/>
    </g>
    <g transform="translate(360,-6)">
      <circle cx="40" cy="40" r="34" fill="#EC7063"/>
      <rect x="10" y="72" width="60" height="78" rx="18" fill="#1A1C24"/>
    </g>
  </g>
  <text x="40" y="58" font-family="'Inter', 'Helvetica', sans-serif" font-size="28" font-weight="700" fill="white">Financial Bridge チーム</text>
  <text x="40" y="92" font-family="'Inter', 'Helvetica', sans-serif" font-size="18" fill="rgba(255,255,255,0.85)">金融・コンサルティングで学生の挑戦を支援するアドバイザー</text>
</svg>
