<svg width="640" height="360" viewBox="0 0 640 360" fill="none" xmlns="http://www.w3.org/2000/svg">
  <defs>
    <linearGradient id="gf-bg" x1="0" y1="0" x2="1" y2="1">
      <stop offset="0%" stop-color="#4ECDC4" />
      <stop offset="100%" stop-color="#6EDDD4" />
    </linearGradient>
  </defs>
  <rect width="640" height="360" rx="24" fill="url(#gf-bg)"/>
  <g opacity="0.22">
    <circle cx="120" cy="100" r="70" fill="white"/>
    <circle cx="500" cy="120" r="90" fill="white"/>
    <rect x="160" y="220" width="360" height="80" rx="30" fill="white"/>
  </g>
  <g transform="translate(110,160)">
    <rect x="-40" y="50" width="440" height="110" rx="26" fill="rgba(255,255,255,0.18)"/>
    <g transform="translate(0,-20)">
      <circle cx="40" cy="40" r="36" fill="#FF9F1C"/>
      <rect x="8" y="70" width="64" height="76" rx="18" fill="#1B4F56"/>
    </g>
    <g transform="translate(120,-10)">
      <circle cx="40" cy="40" r="38" fill="#2EC4B6"/>
      <rect x="6" y="70" width="68" height="78" rx="18" fill="#163D3F"/>
    </g>
    <g transform="translate(240,-20)">
      <circle cx="40" cy="40" r="36" fill="#FFBF69"/>
      <rect x="8" y="70" width="64" height="76" rx="18" fill="#1B4F56"/>
    </g>
    <g transform="translate(360,-5)">
      <circle cx="40" cy="40" r="34" fill="#E71D36"/>
      <rect x="10" y="72" width="60" height="74" rx="18" fill="#163D3F"/>
    </g>
  </g>
  <text x="40" y="58" font-family="'Inter', 'Helvetica', sans-serif" font-size="28" font-weight="700" fill="white">Global Foods 株式会社</text>
  <text x="40" y="92" font-family="'Inter', 'Helvetica', sans-serif" font-size="18" fill="rgba(255,255,255,0.85)">全国の学生イベントを支えるフードサプライチーム</text>
</svg>
