<svg width="640" height="360" viewBox="0 0 640 360" fill="none" xmlns="http://www.w3.org/2000/svg">
  <defs>
    <linearGradient id="ti-bg" x1="0" y1="0" x2="1" y2="1">
      <stop offset="0%" stop-color="#6C5CE7" />
      <stop offset="100%" stop-color="#9B59B6" />
    </linearGradient>
  </defs>
  <rect width="640" height="360" rx="24" fill="url(#ti-bg)"/>
  <g opacity="0.2">
    <rect x="80" y="50" width="160" height="120" rx="20" fill="white"/>
    <rect x="420" y="70" width="140" height="160" rx="20" fill="white"/>
    <circle cx="300" cy="290" r="90" fill="white"/>
  </g>
  <g transform="translate(120,150)">
    <rect x="-40" y="60" width="440" height="110" rx="24" fill="rgba(255,255,255,0.18)"/>
    <g transform="translate(0,-10)">
      <circle cx="40" cy="40" r="36" fill="#74B9FF"/>
      <rect x="8" y="70" width="64" height="78" rx="16" fill="#1B1F3B"/>
    </g>
    <g transform="translate(120,-22)">
      <circle cx="40" cy="40" r="38" fill="#55EFC4"/>
      <rect x="6" y="70" width="68" height="82" rx="18" fill="#141833"/>
    </g>
    <g transform="translate(240,-12)">
      <circle cx="40" cy="40" r="36" fill="#FFEAA7"/>
      <rect x="8" y="70" width="64" height="78" rx="16" fill="#1B1F3B"/>
    </g>
    <g transform="translate(360,-2)">
      <circle cx="40" cy="40" r="34" fill="#E17055"/>
      <rect x="10" y="72" width="60" height="76" rx="16" fill="#141833"/>
    </g>
  </g>
  <text x="40" y="58" font-family="'Inter', 'Helvetica', sans-serif" font-size="28" font-weight="700" fill="white">Tech Innovation チーム</text>
  <text x="40" y="92" font-family="'Inter', 'Helvetica', sans-serif" font-size="18" fill="rgba(255,255,255,0.85)">先端技術で学生プロジェクトを支えるエンジニアリング組織</text>
</svg>
