<svg width="64" height="64" viewBox="0 0 64 64" fill="none" xmlns="http://www.w3.org/2000/svg">
  <rect width="64" height="64" rx="32" fill="#003366"/>
  <path d="M20 22C20 20.8954 20.8954 20 22 20H32C36.4183 20 40 23.5817 40 28C40 30.1217 39.1571 32.0463 37.7929 33.4645C39.1571 34.8826 40 36.8072 40 39C40 43.4183 36.4183 47 32 47H22C20.8954 47 20 46.1046 20 45V22Z" fill="white"/>
  <path d="M26 26H30C31.6569 26 33 27.3431 33 29C33 30.6569 31.6569 32 30 32H26V26Z" fill="#003366"/>
  <path d="M26 36H31C32.6569 36 34 37.3431 34 39C34 40.6569 32.6569 42 31 42H26V36Z" fill="#003366"/>
  <path d="M42 24L46 34L44 38L48 44" stroke="#0099FF" stroke-width="2" stroke-linecap="round"/>
</svg>

