<svg width="64" height="64" viewBox="0 0 64 64" fill="none" xmlns="http://www.w3.org/2000/svg">
  <rect width="64" height="64" rx="32" fill="#27AE60"/>
  <path d="M32 18C32 18 26 22 26 28C26 31.3137 28.6863 34 32 34C35.3137 34 38 31.3137 38 28C38 22 32 18 32 18Z" fill="white"/>
  <path d="M32 34C32 34 38 38 38 44C38 47.3137 35.3137 50 32 50C28.6863 50 26 47.3137 26 44C26 38 32 34 32 34Z" fill="white" opacity="0.8"/>
  <ellipse cx="32" cy="28" rx="3" ry="4" fill="#27AE60"/>
  <circle cx="32" cy="42" r="2" fill="#27AE60"/>
  <path d="M20 32C20 32 22 28 26 28" stroke="white" stroke-width="2" stroke-linecap="round"/>
  <path d="M44 32C44 32 42 28 38 28" stroke="white" stroke-width="2" stroke-linecap="round"/>
</svg>

