<svg width="64" height="64" viewBox="0 0 64 64" fill="none" xmlns="http://www.w3.org/2000/svg">
  <rect width="64" height="64" rx="32" fill="#4ECDC4"/>
  <circle cx="32" cy="28" r="10" fill="white"/>
  <path d="M32 38C26.4772 38 22 42.4772 22 48H42C42 42.4772 37.5228 38 32 38Z" fill="white"/>
  <ellipse cx="28" cy="26" rx="2" ry="3" fill="#4ECDC4"/>
  <ellipse cx="36" cy="26" rx="2" ry="3" fill="#4ECDC4"/>
  <path d="M28 32C28 32 30 34 32 34C34 34 36 32 36 32" stroke="#4ECDC4" stroke-width="2" stroke-linecap="round"/>
  <path d="M20 22C20 22 22 20 24 20" stroke="white" stroke-width="2" stroke-linecap="round"/>
  <path d="M44 22C44 22 42 20 40 20" stroke="white" stroke-width="2" stroke-linecap="round"/>
</svg>

